<svg version="1.1" id="Layer_1" xmlns="http://www.w3.org/2000/svg" xmlns:xlink="http://www.w3.org/1999/xlink" x="0px" y="0px" xml:space="preserve">
    <defs>
        
       <!-- place svg definitions here -->
       <g id="logo">
            <rect x="53.4" y="115.8" width="12.4" height="80.1"></rect>
            <rect x="298.8" y="115.8" width="12.4" height="80.1"></rect>
            <polygon points="23.8,150.6 12.4,150.6 12.4,115.8 0,115.8 0,195.9 12.4,195.9 12.4,161.1 23.8,161.1 23.8,195.9 36.2,195.9 36.2,115.8 23.8,115.8"></polygon>
            <polygon points="158.7,150.6 147.3,150.6 147.3,115.8 134.9,115.8 134.9,195.9 147.3,195.9 147.3,161.1 158.7,161.1 158.7,195.9 171.1,195.9 171.1,115.8 158.7,115.8"></polygon>
            <path d="M225.418 127.244c0-6.317-5.121-11.438-11.438-11.438h-24.782v80.064h24.782 c6.316 0 11.438-5.121 11.438-11.438v-21.423h-0.02c0.006-0.126 0.02-0.25 0.02-0.378c0-2.955-1.632-5.526-4.041-6.87 c2.409-1.344 4.041-3.915 4.041-6.87c0-0.061-0.008-0.119-0.01-0.179h0.01V127.244z M213.027 182.5 c0 0.526-0.428 0.953-0.953 0.953h-9.531c-0.527 0-0.953-0.427-0.953-0.953v-20.493c0-0.526 0.426-0.953 0.953-0.953h9.531 c0.525 0 1 0.4 1 0.953V182.549z M213.027 149.666c0 0.526-0.428 0.953-0.953 0.953h-9.531 c-0.527 0-0.953-0.427-0.953-0.953v-20.493c0-0.526 0.426-0.953 0.953-0.953h9.531c0.525 0 1 0.4 1 0.953V149.666z"></path>
            <path d="M354.568 115.807h-24.781v80.064h24.781c6.316 0 11.438-5.121 11.438-11.438v-57.188 C366.006 120.9 360.9 115.8 354.6 115.807z M353.615 182.549c0 0.526-0.428 0.953-0.953 0.953h-9.531 c-0.526 0-0.953-0.427-0.953-0.953v-53.376c0-0.526 0.427-0.953 0.953-0.953h9.531c0.525 0 1 0.4 1 0.953V182.549z"></path>
            <path d="M106.475 115.807H93.13c-6.316 0-11.438 5.121-11.438 11.438v57.188c0 6.3 5.1 11.4 11.4 11.4 h13.345c6.316 0 11.438-5.121 11.438-11.438v-33.794h-17.157v10.484h4.767v21.426c0 0.526-0.428 0.953-0.954 0.953h-9.531 c-0.526 0-0.953-0.427-0.953-0.953v-53.376c0-0.526 0.427-0.953 0.953-0.953h9.531c0.526 0 1 0.4 1 0.953v10.981h12.391 v-12.91C117.912 120.9 112.8 115.8 106.5 115.807z"></path>
            <path d="M408.619 115.807h-13.344c-6.316 0-11.438 5.121-11.438 11.438v57.188c0 6.3 5.1 11.4 11.4 11.4 h13.344c6.317 0 11.438-5.121 11.438-11.438v-23.31v-10.484H402.9v10.484h4.766v21.426c0 0.526-0.426 0.953-0.953 0.953h-9.531 c-0.526 0-0.953-0.427-0.953-0.953v-53.376c0-0.526 0.427-0.953 0.953-0.953h9.531c0.527 0 1 0.4 1 0.953v10.981h12.392 v-12.91C420.058 120.9 414.9 115.8 408.6 115.807z"></path>
            <polygon points="472.3,128.2 472.3,115.8 438,115.8 438,195.9 472.3,195.9 472.3,183.5 450.4,183.5 450.4,161.1 466.6,161.1 466.6,150.6 450.4,150.6 450.4,128.2"></polygon>
            <path d="M273.62 160.879c3.507-0.803 6.127-3.975 6.127-7.721v-25.914c0-6.317-5.12-11.438-11.438-11.438h-13.344 c-0.231 0-0.46 0.009-0.687 0.022h-10.751v80.063h12.39v-0.022v-34.79h5.359l8.938 34.812h12.391L273.62 160.879z M267.356 149.7 c0 0.526-0.427 0.953-0.954 0.953h-9.531c-0.525 0-0.953-0.427-0.953-0.953v-20.493c0-0.526 0.428-0.953 0.953-0.953h9.531 c0.527 0 1 0.4 1 0.953V149.666z"></path>
            <polygon points="215.3,0 212.8,0 3.8,103.4 15.8,103.4"></polygon>
            <polygon points="235.7,22 273.1,0 236.3,0 39.2,103.4 96.7,103.4 136.9,80.6 130.5,77.9 130.5,65.9 228,103.4 259.2,103.4 155.5,63.8 155.5,51.5 288.7,103.4 324.9,103.4 179.9,48.6 179.9,37.1 355.8,103.4 397.4,103.4 205.5,34.8 205.5,22.7 423.1,102.8 469.4,102.8"></polygon>
            <path d="M107.68 239.78c-6.246 0-6.863-3.741-6.863-9.608c0-6.52 0.755-10.055 6.726-10.055 c1.167 0 2.4 0.1 3.4 0.309l0.24 2.711h1.923l0.102-4.323c-1.681-0.446-3.809-0.79-5.902-0.79 c-7.858 0-9.265 4.907-9.265 12.182c0 7 1.3 11.8 9.2 11.77c2.025 0 4.118-0.308 6.074-0.755l-0.412-2.059 C111.248 239.5 109.5 239.8 107.7 239.78z"></path>
            <path d="M145.768 231.372c3.396-0.515 4.94-2.779 4.94-6.623c0-4.736-2.367-6.383-6.622-6.383h-10.158v1.476 l1.99 0.309v19.698l-1.99 0.309v1.476h6.52v-1.476l-1.989-0.309v-8.236h4.598l4.667 10.02h4.152v-1.476l-2.059-0.309 L145.768 231.372z M138.458 229.553v-9.093h5.182c3.02 0 4.3 1.2 4.3 4.53c0 3.466-1.44 4.563-4.529 4.563H138.458z"></path>
            <polygon points="185.1,239.5 175.8,239.5 175.8,230.7 182,230.7 182.3,232.6 184,232.6 184,226.7 182.3,226.7 182,228.6 175.8,228.6 175.8,220.5 184.9,220.5 185.2,223.1 187.1,223.1 187.1,218.4 171.1,218.4 171.1,219.8 173.1,220.2 173.1,239.8 171.1,240.2 171.1,241.6 187.4,241.6 187.4,236.8 185.4,236.8"></polygon><path d="M219.574 218.367h-6.349v1.476l2.196 0.343l-6.966 19.663l-2.024 0.309v1.476h6.143v-1.476l-1.785-0.309 l2.094-6.006h9.266l2.093 6.006l-1.784 0.309v1.476h6.657v-1.476l-2.024-0.309L219.574 218.367z M213.638 231.75l1.476-4.255 c0.96-2.711 1.888-5.525 2.265-7.172h0.343c0.446 1.8 1.4 4.7 2.3 7.241l1.441 4.187H213.638z"></path>
            <polygon points="244.1,223.1 246.1,223.1 246.4,220.5 251.8,220.5 251.8,239.8 249.7,240.2 249.7,241.6 256.7,241.6 256.7,240.2 254.5,239.8 254.5,220.5 260,220.5 260.3,223.1 262.2,223.1 262.2,218.4 244.1,218.4"></polygon>
            <polygon points="281.9,219.8 283.9,220.2 283.9,239.8 281.9,240.2 281.9,241.6 288.6,241.6 288.6,240.2 286.6,239.8 286.6,220.2 288.6,219.8 288.6,218.4 281.9,218.4"></polygon>
            <path d="M323.372 219.842l1.784 0.309l-3.878 11.188c-1.303 3.774-1.956 5.765-2.573 8.338h-0.172 c-0.618-2.471-1.406-5.044-2.573-8.407l-3.81-11.119l1.785-0.309v-1.476h-6.657v1.476l2.024 0.309l7.446 21.482h3.26l7.48-21.482 l2.026-0.309v-1.476h-6.144V219.842z"></path>
            <polygon points="362.3,239.5 353,239.5 353,230.7 359.2,230.7 359.5,232.6 361.2,232.6 361.2,226.7 359.5,226.7 359.2,228.6 353,228.6 353,220.5 362.1,220.5 362.4,223.1 364.3,223.1 364.3,218.4 348.3,218.4 348.3,219.8 350.3,220.2 350.3,239.8 348.3,240.2 348.3,241.6 364.5,241.6 364.5,236.8 362.6,236.8"></polygon>
        </g>

    </defs>
</svg>